<svg id="Layer_1" data-name="Layer 1" xmlns="http://www.w3.org/2000/svg" xmlns:xlink="http://www.w3.org/1999/xlink" viewBox="0 0 512 512"><defs><pattern id="USGS_8_Sewage_Disposal" data-name="USGS 8 Sewage Disposal" width="72" height="74.8" patternTransform="translate(-60.14 561.93) scale(2.7 2.7)" patternUnits="userSpaceOnUse" viewBox="0 0 72 74.8"><rect width="72" height="74.8" fill="none"/><line y1="73.95" x2="72" y2="73.95" fill="none" stroke="#1f191a" stroke-linecap="square" stroke-width="0.3"/><line y1="72.25" x2="72" y2="72.25" fill="none" stroke="#1f191a" stroke-linecap="square" stroke-width="0.3"/><line y1="70.55" x2="72" y2="70.55" fill="none" stroke="#1f191a" stroke-linecap="square" stroke-width="0.3"/><line y1="68.85" x2="72" y2="68.85" fill="none" stroke="#1f191a" stroke-linecap="square" stroke-width="0.3"/><line y1="67.15" x2="72" y2="67.15" fill="none" stroke="#1f191a" stroke-linecap="square" stroke-width="0.3"/><line y1="65.45" x2="72" y2="65.45" fill="none" stroke="#1f191a" stroke-linecap="square" stroke-width="0.3"/><line y1="63.75" x2="72" y2="63.75" fill="none" stroke="#1f191a" stroke-linecap="square" stroke-width="0.3"/><line y1="62.05" x2="72" y2="62.05" fill="none" stroke="#1f191a" stroke-linecap="square" stroke-width="0.3"/><line y1="60.35" x2="72" y2="60.35" fill="none" stroke="#1f191a" stroke-linecap="square" stroke-width="0.3"/><line y1="58.65" x2="72" y2="58.65" fill="none" stroke="#1f191a" stroke-linecap="square" stroke-width="0.3"/><line y1="56.95" x2="72" y2="56.95" fill="none" stroke="#1f191a" stroke-linecap="square" stroke-width="0.3"/><line y1="55.25" x2="72" y2="55.25" fill="none" stroke="#1f191a" stroke-linecap="square" stroke-width="0.3"/><line y1="53.55" x2="72" y2="53.55" fill="none" stroke="#1f191a" stroke-linecap="square" stroke-width="0.3"/><line y1="51.85" x2="72" y2="51.85" fill="none" stroke="#1f191a" stroke-linecap="square" stroke-width="0.3"/><line y1="50.15" x2="72" y2="50.15" fill="none" stroke="#1f191a" stroke-linecap="square" stroke-width="0.3"/><line y1="48.45" x2="72" y2="48.45" fill="none" stroke="#1f191a" stroke-linecap="square" stroke-width="0.3"/><line y1="46.75" x2="72" y2="46.75" fill="none" stroke="#1f191a" stroke-linecap="square" stroke-width="0.3"/><line y1="45.05" x2="72" y2="45.05" fill="none" stroke="#1f191a" stroke-linecap="square" stroke-width="0.3"/><line y1="43.35" x2="72" y2="43.35" fill="none" stroke="#1f191a" stroke-linecap="square" stroke-width="0.3"/><line y1="41.65" x2="72" y2="41.65" fill="none" stroke="#1f191a" stroke-linecap="square" stroke-width="0.3"/><line y1="39.95" x2="72" y2="39.95" fill="none" stroke="#1f191a" stroke-linecap="square" stroke-width="0.3"/><line y1="38.25" x2="72" y2="38.25" fill="none" stroke="#1f191a" stroke-linecap="square" stroke-width="0.3"/><line y1="36.55" x2="72" y2="36.55" fill="none" stroke="#1f191a" stroke-linecap="square" stroke-width="0.3"/><line y1="34.85" x2="72" y2="34.85" fill="none" stroke="#1f191a" stroke-linecap="square" stroke-width="0.3"/><line y1="33.15" x2="72" y2="33.15" fill="none" stroke="#1f191a" stroke-linecap="square" stroke-width="0.3"/><line y1="31.45" x2="72" y2="31.45" fill="none" stroke="#1f191a" stroke-linecap="square" stroke-width="0.3"/><line y1="29.75" x2="72" y2="29.75" fill="none" stroke="#1f191a" stroke-linecap="square" stroke-width="0.3"/><line y1="28.05" x2="72" y2="28.05" fill="none" stroke="#1f191a" stroke-linecap="square" stroke-width="0.3"/><line y1="26.35" x2="72" y2="26.35" fill="none" stroke="#1f191a" stroke-linecap="square" stroke-width="0.3"/><line y1="24.65" x2="72" y2="24.65" fill="none" stroke="#1f191a" stroke-linecap="square" stroke-width="0.3"/><line y1="22.95" x2="72" y2="22.95" fill="none" stroke="#1f191a" stroke-linecap="square" stroke-width="0.3"/><line y1="21.25" x2="72" y2="21.25" fill="none" stroke="#1f191a" stroke-linecap="square" stroke-width="0.3"/><line y1="19.55" x2="72" y2="19.55" fill="none" stroke="#1f191a" stroke-linecap="square" stroke-width="0.3"/><line y1="17.85" x2="72" y2="17.85" fill="none" stroke="#1f191a" stroke-linecap="square" stroke-width="0.3"/><line y1="16.15" x2="72" y2="16.15" fill="none" stroke="#1f191a" stroke-linecap="square" stroke-width="0.3"/><line y1="14.45" x2="72" y2="14.45" fill="none" stroke="#1f191a" stroke-linecap="square" stroke-width="0.3"/><line y1="12.75" x2="72" y2="12.75" fill="none" stroke="#1f191a" stroke-linecap="square" stroke-width="0.3"/><line y1="11.05" x2="72" y2="11.05" fill="none" stroke="#1f191a" stroke-linecap="square" stroke-width="0.3"/><line y1="9.35" x2="72" y2="9.35" fill="none" stroke="#1f191a" stroke-linecap="square" stroke-width="0.3"/><line y1="7.65" x2="72" y2="7.65" fill="none" stroke="#1f191a" stroke-linecap="square" stroke-width="0.3"/><line y1="5.95" x2="72" y2="5.95" fill="none" stroke="#1f191a" stroke-linecap="square" stroke-width="0.3"/><line y1="4.25" x2="72" y2="4.25" fill="none" stroke="#1f191a" stroke-linecap="square" stroke-width="0.3"/><line y1="2.55" x2="72" y2="2.55" fill="none" stroke="#1f191a" stroke-linecap="square" stroke-width="0.3"/><line y1="0.85" x2="72" y2="0.85" fill="none" stroke="#1f191a" stroke-linecap="square" stroke-width="0.3"/><line x1="-21.5" y1="7.65" x2="-10.25" y2="7.65" fill="none" stroke="#1f191a" stroke-linecap="square" stroke-width="0.3"/></pattern></defs><title>twitter-other</title><path d="M511.3,281.39c0,125.88-102,228-227.69,228-126,0-227.94-102.08-227.94-228s102-228,227.94-228C409.35,53.43,511.3,155.51,511.3,281.39Z" fill="url(#USGS_8_Sewage_Disposal)"/><path d="M494.39,264.46c0,125.88-102,228-227.69,228-126,0-227.94-102.08-227.94-228s102-228,227.94-228C392.44,36.5,494.39,138.58,494.39,264.46Z" fill="url(#USGS_8_Sewage_Disposal)"/><path d="M469,245.42c0,125.88-102,228-227.69,228-126,0-227.94-102.08-227.94-228s102-228,227.94-228C367.06,17.46,469,119.54,469,245.42Z" fill="#1f191a"/><path d="M462.67,234.84c0,125.88-102,228-227.69,228C109,462.8,7,360.72,7,234.84S109,6.88,235,6.88C360.72,6.88,462.67,109,462.67,234.84Z" fill="#333"/><path d="M469,245.42c0,125.88-102,228-227.69,228-126,0-227.94-102.08-227.94-228s102-228,227.94-228C367.06,17.46,469,119.54,469,245.42Z" fill="none" stroke="#1f191a" stroke-width="2.12"/><path d="M458.44,232.73c0,125.88-102,228-227.69,228-126,0-227.94-102.08-227.94-228s102-228,227.94-228C356.49,4.77,458.44,106.85,458.44,232.73Z" fill="#fff"/><path d="M458.44,232.73c0,125.88-102,228-227.69,228-126,0-227.94-102.08-227.94-228s102-228,227.94-228C356.49,4.77,458.44,106.85,458.44,232.73Z" fill="#fff"/><path d="M458.44,232.73c0,125.88-102,228-227.69,228-126,0-227.94-102.08-227.94-228s102-228,227.94-228C356.49,4.77,458.44,106.85,458.44,232.73Z" fill="none" stroke="#1f191a" stroke-width="4.23"/><path d="M79.61,347.58c24.35,1.75,47.88-1.88,70.22-12a122.1,122.1,0,0,0,28.1-16.66A67.33,67.33,0,0,1,149,311.38c-15.15-7.77-25.79-19.79-32.29-35.57-1.5-3.88-1.5-3.88,2.82-3.51,10.39,1,18.21.75,24.6-1.75-5.88-1.88-11.27-3.26-16.08-6C105.58,252,93.62,233,91.68,207.17c-.31-3.13.56-3.38,3.32-2,7.95,4.26,16.52,6.26,26.54,6.89A120.81,120.81,0,0,1,110,201.79c-18.65-19.79-23.16-52-10.58-76.28,1.63-3.26,2.38-3.26,4.76-.38,31.17,35.95,70.16,57.87,117.1,65.38,5,.75,10.14,1,15.2,1.75,3.19.63,3.64-1,3.14-3.63a67.07,67.07,0,0,1,33.42-70.27c25.4-14.78,58.58-10.4,79.48,9.9a6.55,6.55,0,0,0,7.2,1.75,135.91,135.91,0,0,0,35.61-13.9,18.76,18.76,0,0,0,2.82-1.63c-5,15.78-14.52,27.56-28.48,37.08,13.14-1.25,24.73-5.14,36.11-9.52.38,1.75-.81,2.75-1.5,3.76a133.75,133.75,0,0,1-27.85,28.56c-2.19,1.5-2.69,3-2.56,5.51.63,49.47-15.09,93.44-46.75,131.51-29.35,35.07-67.1,56-112.15,63.13-47.76,7.39-92.63-.88-133.88-26.05A4.7,4.7,0,0,0,79.61,347.58Z" fill="#060606" fill-rule="evenodd"/></svg>